<?xml version="1.0" encoding="utf-8"?>
<!-- Generator: Adobe Illustrator 16.0.3, SVG Export Plug-In . SVG Version: 6.00 Build 0)  -->
<!DOCTYPE svg PUBLIC "-//W3C//DTD SVG 1.1//EN" "http://www.w3.org/Graphics/SVG/1.1/DTD/svg11.dtd">
<svg version="1.1" id="Layer_1" xmlns="http://www.w3.org/2000/svg" xmlns:xlink="http://www.w3.org/1999/xlink" x="0px" y="0px"
	 width="24px" height="24px" viewBox="0 0 24 24" enable-background="new 0 0 24 24" xml:space="preserve">
<g>
	<path fill="#FFFFFF" d="M10.148,2.354L1.247,11.17c-0.89,0.881-0.896,2.316-0.015,3.206c0.88,0.891,2.316,0.896,3.206,0.017
		l7.454-7.382l7.383,7.453c0.881,0.891,2.316,0.896,3.206,0.017c0.445-0.44,0.669-1.021,0.673-1.6
		c0.002-0.58-0.218-1.162-0.659-1.606l-8.815-8.901c-0.48-0.486-1.128-0.707-1.761-0.665C11.285,1.659,10.634,1.873,10.148,2.354z"
		/>
	<path fill="#FFFFFF" d="M11.866,12.296c-0.582-0.003-1.162,0.215-1.606,0.657l-5.461,5.406c-0.889,0.883-0.896,2.318-0.014,3.209
		c0.879,0.891,2.316,0.895,3.205,0.015l3.851-3.813l3.812,3.848c0.882,0.891,2.314,0.897,3.206,0.019
		c0.445-0.442,0.669-1.021,0.671-1.6c0.004-0.583-0.214-1.165-0.654-1.609l-5.409-5.459C13.024,12.523,12.447,12.299,11.866,12.296z
		"/>
</g>
</svg>
