<?xml version="1.0" encoding="utf-8"?>
<!-- Generator: Adobe Illustrator 16.0.3, SVG Export Plug-In . SVG Version: 6.00 Build 0)  -->
<!DOCTYPE svg PUBLIC "-//W3C//DTD SVG 1.1//EN" "http://www.w3.org/Graphics/SVG/1.1/DTD/svg11.dtd">
<svg version="1.1" id="Layer_1" xmlns="http://www.w3.org/2000/svg" xmlns:xlink="http://www.w3.org/1999/xlink" x="0px" y="0px"
	 width="24px" height="24px" viewBox="0 0 24 24" enable-background="new 0 0 24 24" xml:space="preserve">
<path fill="#FFFFFF" d="M0.466,13.423l2.999-0.294c-0.027-0.282-0.041-0.572-0.041-0.859c0.003-4.743,3.862-8.596,8.605-8.595
	l0.048,0.035l0.164-0.047c0.12,0.001,0.461,0.007,1.162,0.092c0.688,0.084,1.055,0.226,1.157,0.269l0.063,0.05l0.199,0.068
	c3.473,1.195,5.804,4.466,5.802,8.141c-0.003,2.061-0.726,3.999-2.022,5.532l-1-2.511l-5.586,7.078l8.923,1.298l-1.119-2.806
	c2.432-2.195,3.814-5.275,3.815-8.59c0.003-4.921-3.095-9.309-7.723-10.953c-0.322-0.157-1.01-0.427-2.146-0.567
	c-0.613-0.074-1.119-0.111-1.498-0.112c-0.117-0.001-0.222,0.004-0.315,0.01C5.587,0.699,0.413,5.888,0.41,12.27
	C0.411,12.654,0.43,13.041,0.466,13.423z"/>
</svg>
