<?xml version="1.0" encoding="utf-8"?>
<!-- Generator: Adobe Illustrator 16.0.3, SVG Export Plug-In . SVG Version: 6.00 Build 0)  -->
<!DOCTYPE svg PUBLIC "-//W3C//DTD SVG 1.1//EN" "http://www.w3.org/Graphics/SVG/1.1/DTD/svg11.dtd">
<svg version="1.1" id="Layer_1" xmlns="http://www.w3.org/2000/svg" xmlns:xlink="http://www.w3.org/1999/xlink" x="0px" y="0px"
	 width="24px" height="24px" viewBox="0 0 24 24" enable-background="new 0 0 24 24" xml:space="preserve">
<path fill="#FFFFFF" d="M23.576,10.884l-2.998,0.297c0.027,0.282,0.041,0.572,0.042,0.859c0.002,4.743-3.853,8.601-8.595,8.604
	l-0.048-0.035l-0.164,0.048c-0.12-0.001-0.461-0.007-1.161-0.091c-0.688-0.083-1.056-0.224-1.158-0.267l-0.063-0.05l-0.199-0.067
	c-3.474-1.192-5.809-4.46-5.811-8.134c0-2.061,0.721-4,2.016-5.535l1.003,2.51l5.577-7.085L3.093,0.651l1.123,2.804
	C1.786,5.653,0.407,8.735,0.41,12.05c0.003,4.921,3.106,9.306,7.736,10.944c0.322,0.156,1.01,0.426,2.146,0.564
	c0.613,0.074,1.119,0.111,1.498,0.111c0.117,0.001,0.222-0.005,0.315-0.011c6.366-0.045,11.533-5.24,11.529-11.622
	C23.633,11.652,23.613,11.265,23.576,10.884z"/>
</svg>
