<?xml version="1.0" encoding="utf-8"?>
<!-- Generator: Adobe Illustrator 16.0.3, SVG Export Plug-In . SVG Version: 6.00 Build 0)  -->
<!DOCTYPE svg PUBLIC "-//W3C//DTD SVG 1.1//EN" "http://www.w3.org/Graphics/SVG/1.1/DTD/svg11.dtd">
<svg version="1.1" id="Layer_1" xmlns="http://www.w3.org/2000/svg" xmlns:xlink="http://www.w3.org/1999/xlink" x="0px" y="0px"
	 width="24px" height="24px" viewBox="0 0 24 24" enable-background="new 0 0 24 24" xml:space="preserve">
<path fill="#FFFFFF" d="M13.278,23.724l-0.291-2.999c-0.282,0.026-0.573,0.04-0.859,0.04c-4.743-0.008-8.593-3.87-8.585-8.613
	l0.035-0.048L3.53,11.939c0.001-0.12,0.008-0.461,0.093-1.161c0.084-0.687,0.226-1.055,0.269-1.157l0.05-0.063L4.01,9.359
	c1.2-3.472,4.472-5.8,8.146-5.793c2.061,0.005,3.998,0.73,5.53,2.028l-2.513,0.998l7.074,5.592l1.307-8.921l-2.806,1.116
	c-2.194-2.435-5.273-3.82-8.588-3.824C7.24,0.547,2.848,3.641,1.201,8.268c-0.157,0.322-0.428,1.009-0.569,2.145
	c-0.076,0.613-0.114,1.119-0.114,1.498c-0.001,0.117,0.004,0.222,0.01,0.315c0.032,6.366,5.216,11.543,11.598,11.553
	C12.51,23.778,12.897,23.76,13.278,23.724z"/>
</svg>
