<?xml version="1.0" encoding="utf-8"?>
<!-- Generator: Adobe Illustrator 16.0.3, SVG Export Plug-In . SVG Version: 6.00 Build 0)  -->
<!DOCTYPE svg PUBLIC "-//W3C//DTD SVG 1.1//EN" "http://www.w3.org/Graphics/SVG/1.1/DTD/svg11.dtd">
<svg version="1.1" id="Layer_1" xmlns="http://www.w3.org/2000/svg" xmlns:xlink="http://www.w3.org/1999/xlink" x="0px" y="0px"
	 width="24px" height="24px" viewBox="0 0 24 24" enable-background="new 0 0 24 24" xml:space="preserve">
<path fill="#FFFFFF" d="M10.729,0.612L11.03,3.61c0.282-0.028,0.572-0.042,0.858-0.043c4.743-0.007,8.605,3.844,8.613,8.586
	l-0.035,0.048l0.047,0.164c0,0.12-0.005,0.461-0.088,1.16c-0.082,0.688-0.223,1.056-0.266,1.158l-0.049,0.064l-0.068,0.2
	c-1.188,3.475-4.453,5.813-8.127,5.818c-2.061,0.003-4.001-0.716-5.537-2.01l2.509-1.006l-7.091-5.569l-1.279,8.925l2.803-1.124
	c2.201,2.427,5.284,3.802,8.599,3.797c4.922-0.008,9.303-3.117,10.936-7.749c0.157-0.322,0.425-1.009,0.562-2.146
	c0.073-0.613,0.11-1.119,0.11-1.498c0-0.117-0.005-0.222-0.012-0.315C23.464,5.704,18.263,0.543,11.882,0.553
	C11.497,0.554,11.11,0.574,10.729,0.612z"/>
</svg>
