<?xml version="1.0" encoding="utf-8"?>
<!-- Generator: Adobe Illustrator 16.0.3, SVG Export Plug-In . SVG Version: 6.00 Build 0)  -->
<!DOCTYPE svg PUBLIC "-//W3C//DTD SVG 1.1//EN" "http://www.w3.org/Graphics/SVG/1.1/DTD/svg11.dtd">
<svg version="1.1" id="Layer_1" xmlns="http://www.w3.org/2000/svg" xmlns:xlink="http://www.w3.org/1999/xlink" x="0px" y="0px"
	 width="24px" height="24px" viewBox="0 0 16 16" enable-background="new 0 0 16 16" xml:space="preserve">
<g>
	<path fill="#FFFFFF" d="M4.309,7.219V2.461H2.609V1.492H7.16v0.969H5.465v4.758H4.309z"/>
	<path fill="#FFFFFF" d="M7.688,4.391c0-0.583,0.087-1.073,0.262-1.469C8.08,2.63,8.257,2.369,8.482,2.137
		c0.225-0.232,0.473-0.404,0.74-0.516C9.58,1.47,9.99,1.395,10.457,1.395c0.844,0,1.52,0.262,2.025,0.785s0.76,1.251,0.76,2.184
		c0,0.924-0.252,1.648-0.754,2.17s-1.174,0.783-2.016,0.783c-0.852,0-1.529-0.26-2.031-0.779C7.939,6.018,7.688,5.302,7.688,4.391z
		 M8.879,4.352c0,0.648,0.15,1.14,0.449,1.475s0.68,0.502,1.141,0.502s0.84-0.166,1.135-0.498S12.047,5,12.047,4.336
		c0-0.656-0.145-1.146-0.432-1.469s-0.67-0.484-1.146-0.484s-0.861,0.164-1.152,0.49S8.879,3.693,8.879,4.352z"/>
	<path fill="#FFFFFF" d="M1.633,14.818v-4.758h-1.699V9.092h4.551v0.969H2.789v4.758H1.633z"/>
	<path fill="#FFFFFF" d="M5.012,11.99c0-0.584,0.087-1.072,0.262-1.469c0.13-0.291,0.308-0.553,0.533-0.785s0.472-0.404,0.74-0.516
		c0.357-0.15,0.768-0.227,1.234-0.227c0.844,0,1.52,0.262,2.025,0.785s0.76,1.252,0.76,2.184c0,0.925-0.252,1.647-0.754,2.17
		s-1.174,0.783-2.016,0.783c-0.852,0-1.529-0.26-2.031-0.779S5.012,12.901,5.012,11.99z M6.203,11.951
		c0,0.648,0.15,1.14,0.449,1.475s0.68,0.502,1.141,0.502s0.84-0.166,1.135-0.498s0.443-0.83,0.443-1.494
		c0-0.656-0.145-1.146-0.432-1.469S8.27,9.982,7.793,9.982s-0.861,0.164-1.152,0.49S6.203,11.293,6.203,11.951z"/>
	<path fill="#FFFFFF" d="M11.629,14.818V9.092h1.855c0.703,0,1.16,0.029,1.375,0.086c0.328,0.086,0.602,0.273,0.824,0.561
		c0.221,0.287,0.332,0.66,0.332,1.115c0,0.352-0.064,0.646-0.191,0.887c-0.129,0.24-0.291,0.428-0.486,0.564
		c-0.197,0.137-0.396,0.227-0.6,0.271c-0.277,0.055-0.676,0.082-1.199,0.082h-0.754v2.16H11.629z M12.785,10.061v1.625h0.633
		c0.455,0,0.76-0.029,0.914-0.09c0.152-0.061,0.273-0.154,0.361-0.281c0.086-0.127,0.131-0.275,0.131-0.445
		c0-0.209-0.063-0.381-0.184-0.516c-0.123-0.135-0.277-0.221-0.465-0.254c-0.139-0.025-0.416-0.039-0.832-0.039H12.785z"/>
</g>
</svg>
